<svg version="1.1" id="Layer_1" xmlns="http://www.w3.org/2000/svg" xmlns:xlink="http://www.w3.org/1999/xlink" x="0px" y="0px"
	 width="100%" viewBox="0 0 512 512" enable-background="new 0 0 512 512" xml:space="preserve">
<path fill="#000000" opacity="1.000000" stroke="none" 
	d="
M325.000000,513.000000 
	C216.692978,513.000000 108.885948,513.000000 1.039461,513.000000 
	C1.039461,342.401276 1.039461,171.802551 1.039461,1.101915 
	C171.557037,1.101915 342.114136,1.101915 512.835632,1.101915 
	C512.835632,171.666534 512.835632,342.333252 512.835632,513.000000 
	C450.469208,513.000000 387.984589,513.000000 325.000000,513.000000 
M150.500000,297.032776 
	C118.091858,297.032776 85.683716,297.032776 53.315048,297.032776 
	C53.315048,320.423279 53.315048,343.156281 53.315048,366.177002 
	C58.108341,366.177002 62.605228,365.925873 67.058975,366.256256 
	C70.643059,366.522125 72.676140,365.215668 74.757568,362.299622 
	C92.943108,336.821869 130.879135,336.839661 149.018036,362.335266 
	C151.100571,365.262421 153.170471,366.269714 156.712311,366.261688 
	C210.512833,366.139771 264.313721,366.179321 318.114532,366.166626 
	C319.864746,366.166199 321.614868,366.012390 323.276978,365.934235 
	C323.276978,342.673981 323.276978,319.970520 323.276978,297.032806 
	C265.746796,297.032806 208.623398,297.032806 150.500000,297.032776 
M424.320007,346.950104 
	C432.647430,350.540802 439.271454,356.148590 444.397369,363.626282 
	C445.146149,364.718597 446.558838,366.001892 447.718018,366.056488 
	C453.157745,366.312683 458.616272,366.170410 464.107361,366.170410 
	C464.107361,355.951752 464.107361,346.259918 464.107361,336.282501 
	C458.327332,336.282501 453.004578,336.406647 447.689911,336.253082 
	C439.934998,336.029022 435.431580,331.468994 435.153198,323.691925 
	C435.034119,320.365112 435.087250,317.029999 435.135712,313.699738 
	C435.265015,304.816376 439.892395,300.153015 448.717377,300.050964 
	C453.835419,299.991791 458.954651,300.040222 464.570404,300.040222 
	C464.570404,289.931335 464.701538,280.303314 464.482025,270.683258 
	C464.424133,268.147308 463.765656,265.375458 462.565582,263.153320 
	C448.815674,237.692917 434.847992,212.350037 421.120453,186.877670 
	C419.472534,183.819824 417.688568,182.712906 414.218109,182.735031 
	C389.902740,182.890076 365.585938,182.811554 341.269592,182.830017 
	C339.689484,182.831223 338.109497,183.017105 336.573059,183.114304 
	C336.573059,244.367386 336.573059,305.079041 336.573059,366.176483 
	C346.027466,366.176483 355.168121,366.277802 364.301208,366.060333 
	C365.578125,366.029938 367.169983,364.691071 368.022003,363.524109 
	C381.613495,344.909088 402.147186,338.636353 424.320007,346.950104 
M295.725708,232.167969 
	C302.556671,214.646484 306.116516,196.696106 301.928711,177.971878 
	C298.491852,162.605484 291.037750,149.769119 276.937531,141.721466 
	C275.361694,140.822052 272.329651,140.193985 271.252472,141.050079 
	C259.108429,150.701614 244.716064,152.735260 229.996124,153.917664 
	C226.099152,154.230682 223.068588,153.312363 220.348587,150.104218 
	C206.768082,134.086456 188.750031,131.997040 172.244293,145.075806 
	C154.824066,158.879211 149.702286,178.079498 150.578720,199.356659 
	C150.628128,200.556290 152.931259,202.251541 154.479614,202.699554 
	C161.337738,204.684036 168.349411,206.133621 175.222443,208.071457 
	C213.135803,218.760986 251.278305,228.854156 285.665100,249.059265 
	C285.886963,249.189621 286.284424,249.021149 287.385254,248.920197 
	C289.928345,243.806396 292.653381,238.326660 295.725708,232.167969 
M86.352234,215.849350 
	C68.850525,234.534470 75.453247,263.793549 99.301231,270.624603 
	C110.014946,273.693481 121.411102,274.379883 133.020737,276.230774 
	C132.878799,273.197571 132.742493,271.068176 132.686966,268.936707 
	C132.566818,264.323181 134.853073,261.188904 138.639709,261.301727 
	C142.751526,261.424255 144.924637,263.795959 145.187469,267.979797 
	C145.373978,270.948730 145.790771,273.903198 146.151886,277.308197 
	C157.177429,278.230438 167.997147,279.135498 178.976715,280.053894 
	C178.976715,277.333923 178.864319,275.344635 178.996429,273.371765 
	C179.529572,265.410614 180.068420,257.448517 180.747498,249.498917 
	C181.100311,245.368713 183.586594,242.900482 187.703049,243.372757 
	C192.142410,243.882080 193.720169,247.053619 193.148544,251.353027 
	C192.929214,253.002731 192.562119,254.653763 192.549332,256.306396 
	C192.486710,264.387329 192.520950,272.469055 192.520950,281.258698 
	C208.853561,281.258698 225.069153,281.258698 241.294846,281.258698 
	C243.252579,271.159729 244.880173,268.880035 249.628464,269.596313 
	C253.924561,270.244385 255.210129,273.086090 254.607224,281.164673 
	C264.987396,280.972198 275.151428,279.988647 284.931610,276.352295 
	C285.704620,276.064911 286.451324,275.662933 287.145142,275.213684 
	C291.127991,272.635010 291.905212,269.475647 288.580566,266.149506 
	C285.447205,263.014771 281.905273,259.874725 277.937683,258.062347 
	C264.048309,251.717911 249.916260,245.901031 235.831314,239.991150 
	C232.665359,238.662735 229.316925,237.769180 225.445740,236.472137 
	C223.877823,242.222153 222.249649,247.430420 221.060883,252.737152 
	C219.408234,260.114624 216.914444,262.953918 212.445862,261.856506 
	C208.138000,260.798553 206.909073,257.319550 208.603271,250.179672 
	C210.004654,244.273788 211.633881,238.421967 213.233704,232.271149 
	C202.700821,229.150742 192.563675,226.147598 182.008102,223.020493 
	C180.532623,227.144638 179.180679,230.864594 177.870819,234.599304 
	C176.130219,239.562119 173.288406,241.623322 169.602707,240.547470 
	C165.579468,239.373077 164.169388,235.912521 165.749023,230.855606 
	C166.872055,227.260483 168.104492,223.699539 169.452850,219.625580 
	C158.624161,216.940948 148.245651,214.367935 137.961853,211.818405 
	C137.406128,212.815277 137.136612,213.226791 136.935760,213.669479 
	C131.095062,226.543106 128.077591,240.083832 126.862999,254.141479 
	C126.654999,256.548889 124.884857,259.435944 122.931343,260.859619 
	C121.651192,261.792542 117.805634,261.259613 116.780426,260.010925 
	C115.206978,258.094543 114.307594,254.954010 114.451920,252.408356 
	C115.296211,237.515808 118.781609,223.186096 124.792656,209.511871 
	C111.047874,204.015686 97.771606,206.089706 86.352234,215.849350 
M312.500000,389.930695 
	C328.306122,389.930695 344.112213,389.930695 360.049377,389.930695 
	C360.439331,386.159698 360.790405,382.764252 361.148804,379.298523 
	C292.802979,379.298523 224.899811,379.298523 156.845474,379.298523 
	C157.255829,382.917847 157.630203,386.219971 158.050903,389.930695 
	C209.225601,389.930695 260.362793,389.930695 312.500000,389.930695 
M384.526917,414.007172 
	C385.862396,414.999695 387.143677,416.076935 388.541870,416.971436 
	C400.389679,424.550812 415.674164,423.684357 426.833435,414.837738 
	C437.678955,406.239929 442.055511,391.344666 437.539703,378.399780 
	C432.816467,364.860321 420.542297,356.010040 406.431091,355.968994 
	C392.898621,355.929626 380.913666,363.776642 375.709259,376.083771 
	C370.167816,389.187927 373.136688,402.615631 384.526917,414.007172 
M99.131958,358.459961 
	C97.794197,359.130920 96.418365,359.735931 95.124535,360.483002 
	C81.278961,368.477234 75.159836,385.901550 80.958534,400.756439 
	C86.952744,416.112183 103.308517,425.017670 118.790886,421.355621 
	C137.889191,416.838287 149.011703,398.231049 143.669968,379.734589 
	C138.311646,361.180725 119.026360,351.677216 99.131958,358.459961 
M239.583984,136.161774 
	C238.315811,137.930832 237.047638,139.699890 235.490738,141.871704 
	C262.232086,142.569168 284.301056,117.525154 280.120331,92.323540 
	C257.276978,95.430038 238.226669,109.049210 236.539993,123.347618 
	C240.413925,120.645103 244.315186,117.811790 248.333801,115.156090 
	C251.443939,113.100754 254.734695,112.567833 257.024628,116.207443 
	C259.372803,119.939552 257.029572,122.236458 254.069107,124.438362 
	C249.277084,128.002518 244.708954,131.867676 239.583984,136.161774 
M451.303131,381.266876 
	C451.645599,384.019928 451.988068,386.773010 452.381012,389.931885 
	C460.694122,389.931885 468.943085,389.909668 477.191833,389.941986 
	C480.884003,389.956451 483.576477,388.334503 483.638794,384.597778 
	C483.706177,380.557343 480.914062,378.942993 477.000885,378.973724 
	C469.379089,379.033600 461.755737,378.940247 454.135101,379.052307 
	C453.134979,379.066986 452.147095,379.916199 451.303131,381.266876 
M37.121014,247.556747 
	C35.280216,248.729095 33.439419,249.901428 30.689178,251.652954 
	C43.080894,255.522568 53.956577,254.426254 64.935707,250.905319 
	C64.416519,247.837830 63.982853,245.275589 63.493881,242.386597 
	C54.427361,242.007660 45.963028,243.784271 37.121014,247.556747 
M43.149353,388.615997 
	C50.647873,389.246307 58.146397,389.876617 65.675140,390.509430 
	C66.137337,386.081329 66.489761,382.704834 66.877151,378.993378 
	C60.246269,378.993378 53.938469,378.887360 47.635960,379.024597 
	C41.878384,379.149963 40.008743,382.624146 43.149353,388.615997 
M51.818478,208.624039 
	C48.342487,207.991074 44.866493,207.358109 41.390503,206.725143 
	C41.206467,207.168320 41.022434,207.611496 40.838398,208.054672 
	C46.889465,216.737350 55.540005,221.956207 65.456352,225.959747 
	C66.774590,222.826828 67.965141,219.997391 69.515694,216.312393 
	C63.671452,213.737411 58.133041,211.297180 51.818478,208.624039 
M447.974976,313.995026 
	C447.974976,317.091766 447.974976,320.188477 447.974976,323.498657 
	C453.605194,323.498657 458.803253,323.498657 464.286377,323.498657 
	C464.286377,319.908478 464.286377,316.554718 464.286377,313.146240 
	C458.773315,313.146240 453.519989,313.146240 447.974976,313.995026 
M31.329832,227.290665 
	C35.747910,230.158325 39.917500,234.123779 46.389946,230.690689 
	C44.031670,228.831543 42.097012,227.308777 40.165707,225.781769 
	C39.774754,225.472656 39.426819,225.098801 39.007473,224.837585 
	C35.971619,222.946411 32.030327,223.887589 31.329832,227.290665 
z"/>
<path fill="#60AAC9" opacity="1.000000" stroke="none" 
	d="
M151.000000,297.032776 
	C208.623398,297.032806 265.746796,297.032806 323.276978,297.032806 
	C323.276978,319.970520 323.276978,342.673981 323.276978,365.934235 
	C321.614868,366.012390 319.864746,366.166199 318.114532,366.166626 
	C264.313721,366.179321 210.512833,366.139771 156.712311,366.261688 
	C153.170471,366.269714 151.100571,365.262421 149.018036,362.335266 
	C130.879135,336.839661 92.943108,336.821869 74.757568,362.299622 
	C72.676140,365.215668 70.643059,366.522125 67.058975,366.256256 
	C62.605228,365.925873 58.108341,366.177002 53.315048,366.177002 
	C53.315048,343.156281 53.315048,320.423279 53.315048,297.032776 
	C85.683716,297.032776 118.091858,297.032776 151.000000,297.032776 
z"/>
<path fill="#5FA9C7" opacity="1.000000" stroke="none" 
	d="
M423.961426,346.805664 
	C402.147186,338.636353 381.613495,344.909088 368.022003,363.524109 
	C367.169983,364.691071 365.578125,366.029938 364.301208,366.060333 
	C355.168121,366.277802 346.027466,366.176483 336.573059,366.176483 
	C336.573059,305.079041 336.573059,244.367386 336.573059,183.114304 
	C338.109497,183.017105 339.689484,182.831223 341.269592,182.830017 
	C365.585938,182.811554 389.902740,182.890076 414.218109,182.735031 
	C417.688568,182.712906 419.472534,183.819824 421.120453,186.877670 
	C434.847992,212.350037 448.815674,237.692917 462.565582,263.153320 
	C463.765656,265.375458 464.424133,268.147308 464.482025,270.683258 
	C464.701538,280.303314 464.570404,289.931335 464.570404,300.040222 
	C458.954651,300.040222 453.835419,299.991791 448.717377,300.050964 
	C439.892395,300.153015 435.265015,304.816376 435.135712,313.699738 
	C435.087250,317.029999 435.034119,320.365112 435.153198,323.691925 
	C435.431580,331.468994 439.934998,336.029022 447.689911,336.253082 
	C453.004578,336.406647 458.327332,336.282501 464.107361,336.282501 
	C464.107361,346.259918 464.107361,355.951752 464.107361,366.170410 
	C458.616272,366.170410 453.157745,366.312683 447.718018,366.056488 
	C446.558838,366.001892 445.146149,364.718597 444.397369,363.626282 
	C439.271454,356.148590 432.647430,350.540802 423.961426,346.805664 
M403.192017,199.604706 
	C389.544586,199.604324 375.897125,199.586884 362.249725,199.610413 
	C354.921295,199.623047 353.090881,201.440491 353.084900,208.711166 
	C353.067688,229.681595 353.068665,250.652069 353.084991,271.622498 
	C353.090576,278.827118 355.128296,280.916595 362.177368,280.921204 
	C387.641479,280.937836 413.105591,280.939301 438.569702,280.921082 
	C446.816559,280.915161 450.165619,275.707031 446.264160,268.467163 
	C434.675385,246.962128 423.001587,225.500565 411.043121,204.200485 
	C409.836060,202.050415 406.469177,201.112915 403.192017,199.604706 
z"/>
<path fill="#FE1F1F" opacity="1.000000" stroke="none" 
	d="
M295.552063,232.507446 
	C292.653381,238.326660 289.928345,243.806396 287.385254,248.920197 
	C286.284424,249.021149 285.886963,249.189621 285.665100,249.059265 
	C251.278305,228.854156 213.135803,218.760986 175.222443,208.071457 
	C168.349411,206.133621 161.337738,204.684036 154.479614,202.699554 
	C152.931259,202.251541 150.628128,200.556290 150.578720,199.356659 
	C149.702286,178.079498 154.824066,158.879211 172.244293,145.075806 
	C188.750031,131.997040 206.768082,134.086456 220.348587,150.104218 
	C223.068588,153.312363 226.099152,154.230682 229.996124,153.917664 
	C244.716064,152.735260 259.108429,150.701614 271.252472,141.050079 
	C272.329651,140.193985 275.361694,140.822052 276.937531,141.721466 
	C291.037750,149.769119 298.491852,162.605484 301.928711,177.971878 
	C306.116516,196.696106 302.556671,214.646484 295.552063,232.507446 
z"/>
<path fill="#F99004" opacity="1.000000" stroke="none" 
	d="
M86.608932,215.598801 
	C97.771606,206.089706 111.047874,204.015686 124.792656,209.511871 
	C118.781609,223.186096 115.296211,237.515808 114.451920,252.408356 
	C114.307594,254.954010 115.206978,258.094543 116.780426,260.010925 
	C117.805634,261.259613 121.651192,261.792542 122.931343,260.859619 
	C124.884857,259.435944 126.654999,256.548889 126.862999,254.141479 
	C128.077591,240.083832 131.095062,226.543106 136.935760,213.669479 
	C137.136612,213.226791 137.406128,212.815277 137.961853,211.818405 
	C148.245651,214.367935 158.624161,216.940948 169.452850,219.625580 
	C168.104492,223.699539 166.872055,227.260483 165.749023,230.855606 
	C164.169388,235.912521 165.579468,239.373077 169.602707,240.547470 
	C173.288406,241.623322 176.130219,239.562119 177.870819,234.599304 
	C179.180679,230.864594 180.532623,227.144638 182.008102,223.020493 
	C192.563675,226.147598 202.700821,229.150742 213.233704,232.271149 
	C211.633881,238.421967 210.004654,244.273788 208.603271,250.179672 
	C206.909073,257.319550 208.138000,260.798553 212.445862,261.856506 
	C216.914444,262.953918 219.408234,260.114624 221.060883,252.737152 
	C222.249649,247.430420 223.877823,242.222153 225.445740,236.472137 
	C229.316925,237.769180 232.665359,238.662735 235.831314,239.991150 
	C249.916260,245.901031 264.048309,251.717911 277.937683,258.062347 
	C281.905273,259.874725 285.447205,263.014771 288.580566,266.149506 
	C291.905212,269.475647 291.127991,272.635010 287.145142,275.213684 
	C286.451324,275.662933 285.704620,276.064911 284.931610,276.352295 
	C275.151428,279.988647 264.987396,280.972198 254.607224,281.164673 
	C255.210129,273.086090 253.924561,270.244385 249.628464,269.596313 
	C244.880173,268.880035 243.252579,271.159729 241.294846,281.258698 
	C225.069153,281.258698 208.853561,281.258698 192.520950,281.258698 
	C192.520950,272.469055 192.486710,264.387329 192.549332,256.306396 
	C192.562119,254.653763 192.929214,253.002731 193.148544,251.353027 
	C193.720169,247.053619 192.142410,243.882080 187.703049,243.372757 
	C183.586594,242.900482 181.100311,245.368713 180.747498,249.498917 
	C180.068420,257.448517 179.529572,265.410614 178.996429,273.371765 
	C178.864319,275.344635 178.976715,277.333923 178.976715,280.053894 
	C167.997147,279.135498 157.177429,278.230438 146.151886,277.308197 
	C145.790771,273.903198 145.373978,270.948730 145.187469,267.979797 
	C144.924637,263.795959 142.751526,261.424255 138.639709,261.301727 
	C134.853073,261.188904 132.566818,264.323181 132.686966,268.936707 
	C132.742493,271.068176 132.878799,273.197571 133.020737,276.230774 
	C121.411102,274.379883 110.014946,273.693481 99.301231,270.624603 
	C75.453247,263.793549 68.850525,234.534470 86.608932,215.598801 
z"/>
<path fill="#C9C9CA" opacity="1.000000" stroke="none" 
	d="
M312.000000,389.930695 
	C260.362793,389.930695 209.225601,389.930695 158.050903,389.930695 
	C157.630203,386.219971 157.255829,382.917847 156.845474,379.298523 
	C224.899811,379.298523 292.802979,379.298523 361.148804,379.298523 
	C360.790405,382.764252 360.439331,386.159698 360.049377,389.930695 
	C344.112213,389.930695 328.306122,389.930695 312.000000,389.930695 
z"/>
<path fill="#787879" opacity="1.000000" stroke="none" 
	d="
M384.258759,413.773010 
	C373.136688,402.615631 370.167816,389.187927 375.709259,376.083771 
	C380.913666,363.776642 392.898621,355.929626 406.431091,355.968994 
	C420.542297,356.010040 432.816467,364.860321 437.539703,378.399780 
	C442.055511,391.344666 437.678955,406.239929 426.833435,414.837738 
	C415.674164,423.684357 400.389679,424.550812 388.541870,416.971436 
	C387.143677,416.076935 385.862396,414.999695 384.258759,413.773010 
M389.732544,400.650421 
	C396.694122,409.293915 406.829376,411.637817 415.896271,406.701111 
	C424.272919,402.140228 428.421051,391.823883 425.339905,382.750916 
	C422.772675,375.191223 417.396637,370.415039 409.582123,369.146790 
	C401.394135,367.817871 394.369080,370.527283 389.642822,377.567139 
	C384.738831,384.871674 384.670685,392.485809 389.732544,400.650421 
z"/>
<path fill="#787879" opacity="1.000000" stroke="none" 
	d="
M99.486855,358.298309 
	C119.026360,351.677216 138.311646,361.180725 143.669968,379.734589 
	C149.011703,398.231049 137.889191,416.838287 118.790886,421.355621 
	C103.308517,425.017670 86.952744,416.112183 80.958534,400.756439 
	C75.159836,385.901550 81.278961,368.477234 95.124535,360.483002 
	C96.418365,359.735931 97.794197,359.130920 99.486855,358.298309 
M131.244232,394.420624 
	C133.552002,384.577484 129.724930,375.592865 121.331322,371.148529 
	C112.945595,366.708374 102.705620,368.693054 96.438759,375.973145 
	C90.651840,382.695679 90.073845,393.231018 95.304482,400.508972 
	C100.088684,407.165802 106.769676,410.060760 114.838043,408.910248 
	C122.951111,407.753387 128.301620,402.920135 131.244232,394.420624 
z"/>
<path fill="#9ACE41" opacity="1.000000" stroke="none" 
	d="
M239.815125,135.883759 
	C244.708954,131.867676 249.277084,128.002518 254.069107,124.438362 
	C257.029572,122.236458 259.372803,119.939552 257.024628,116.207443 
	C254.734695,112.567833 251.443939,113.100754 248.333801,115.156090 
	C244.315186,117.811790 240.413925,120.645103 236.539993,123.347618 
	C238.226669,109.049210 257.276978,95.430038 280.120331,92.323540 
	C284.301056,117.525154 262.232086,142.569168 235.490738,141.871704 
	C237.047638,139.699890 238.315811,137.930832 239.815125,135.883759 
z"/>
<path fill="#C8C8C9" opacity="1.000000" stroke="none" 
	d="
M451.228333,380.822906 
	C452.147095,379.916199 453.134979,379.066986 454.135101,379.052307 
	C461.755737,378.940247 469.379089,379.033600 477.000885,378.973724 
	C480.914062,378.942993 483.706177,380.557343 483.638794,384.597778 
	C483.576477,388.334503 480.884003,389.956451 477.191833,389.941986 
	C468.943085,389.909668 460.694122,389.931885 452.381012,389.931885 
	C451.988068,386.773010 451.645599,384.019928 451.228333,380.822906 
z"/>
<path fill="#98CB3F" opacity="1.000000" stroke="none" 
	d="
M37.449944,247.367630 
	C45.963028,243.784271 54.427361,242.007660 63.493881,242.386597 
	C63.982853,245.275589 64.416519,247.837830 64.935707,250.905319 
	C53.956577,254.426254 43.080894,255.522568 30.689178,251.652954 
	C33.439419,249.901428 35.280216,248.729095 37.449944,247.367630 
z"/>
<path fill="#C8C8C9" opacity="1.000000" stroke="none" 
	d="
M42.870396,388.328308 
	C40.008743,382.624146 41.878384,379.149963 47.635960,379.024597 
	C53.938469,378.887360 60.246269,378.993378 66.877151,378.993378 
	C66.489761,382.704834 66.137337,386.081329 65.675140,390.509430 
	C58.146397,389.876617 50.647873,389.246307 42.870396,388.328308 
z"/>
<path fill="#98CB3F" opacity="1.000000" stroke="none" 
	d="
M52.206554,208.740479 
	C58.133041,211.297180 63.671452,213.737411 69.515694,216.312393 
	C67.965141,219.997391 66.774590,222.826828 65.456352,225.959747 
	C55.540005,221.956207 46.889465,216.737350 40.838398,208.054672 
	C41.022434,207.611496 41.206467,207.168320 41.390503,206.725143 
	C44.866493,207.358109 48.342487,207.991074 52.206554,208.740479 
z"/>
<path fill="#F0F0F0" opacity="1.000000" stroke="none" 
	d="
M448.120850,313.570618 
	C453.519989,313.146240 458.773315,313.146240 464.286377,313.146240 
	C464.286377,316.554718 464.286377,319.908478 464.286377,323.498657 
	C458.803253,323.498657 453.605194,323.498657 447.974976,323.498657 
	C447.974976,320.188477 447.974976,317.091766 448.120850,313.570618 
z"/>
<path fill="#79AB22" opacity="1.000000" stroke="none" 
	d="
M31.093922,227.027908 
	C32.030327,223.887589 35.971619,222.946411 39.007473,224.837585 
	C39.426819,225.098801 39.774754,225.472656 40.165707,225.781769 
	C42.097012,227.308777 44.031670,228.831543 46.389946,230.690689 
	C39.917500,234.123779 35.747910,230.158325 31.093922,227.027908 
z"/>
<path fill="#030304" opacity="1.000000" stroke="none" 
	d="
M403.648315,199.608704 
	C406.469177,201.112915 409.836060,202.050415 411.043121,204.200485 
	C423.001587,225.500565 434.675385,246.962128 446.264160,268.467163 
	C450.165619,275.707031 446.816559,280.915161 438.569702,280.921082 
	C413.105591,280.939301 387.641479,280.937836 362.177368,280.921204 
	C355.128296,280.916595 353.090576,278.827118 353.084991,271.622498 
	C353.068665,250.652069 353.067688,229.681595 353.084900,208.711166 
	C353.090881,201.440491 354.921295,199.623047 362.249725,199.610413 
	C375.897125,199.586884 389.544586,199.604324 403.648315,199.608704 
M376.518738,268.073334 
	C394.617096,268.073334 412.715454,268.073334 431.641144,268.073334 
	C421.502716,249.496948 411.759705,231.598068 401.911926,213.757034 
	C401.474670,212.964920 400.087006,212.264603 399.135040,212.255524 
	C388.190735,212.151169 377.245087,212.189026 366.264282,212.189026 
	C366.264282,231.109726 366.264282,249.501450 366.264282,268.073334 
	C369.559753,268.073334 372.543640,268.073334 376.518738,268.073334 
z"/>
<path fill="#020202" opacity="1.000000" stroke="none" 
	d="
M389.514435,400.352814 
	C384.670685,392.485809 384.738831,384.871674 389.642822,377.567139 
	C394.369080,370.527283 401.394135,367.817871 409.582123,369.146790 
	C417.396637,370.415039 422.772675,375.191223 425.339905,382.750916 
	C428.421051,391.823883 424.272919,402.140228 415.896271,406.701111 
	C406.829376,411.637817 396.694122,409.293915 389.514435,400.352814 
M412.802063,392.238312 
	C414.555359,385.557037 410.685577,379.991608 405.034851,381.697876 
	C402.657166,382.415863 400.148041,385.061951 399.161377,387.438721 
	C397.861389,390.570374 399.509979,393.698853 402.738800,395.279785 
	C406.512360,397.127441 409.812744,396.273651 412.802063,392.238312 
z"/>
<path fill="#030303" opacity="1.000000" stroke="none" 
	d="
M131.143646,394.812744 
	C128.301620,402.920135 122.951111,407.753387 114.838043,408.910248 
	C106.769676,410.060760 100.088684,407.165802 95.304482,400.508972 
	C90.073845,393.231018 90.651840,382.695679 96.438759,375.973145 
	C102.705620,368.693054 112.945595,366.708374 121.331322,371.148529 
	C129.724930,375.592865 133.552002,384.577484 131.143646,394.812744 
M119.077126,387.777802 
	C116.801254,381.827942 111.068771,379.391602 107.380142,383.345337 
	C105.619080,385.232941 104.747414,388.997284 105.180412,391.630829 
	C105.777504,395.262329 109.164536,396.733276 112.880318,396.177795 
	C117.129257,395.542603 119.128387,392.838837 119.077126,387.777802 
z"/>
<path fill="#FDFDFD" opacity="1.000000" stroke="none" 
	d="
M376.023132,268.073334 
	C372.543640,268.073334 369.559753,268.073334 366.264282,268.073334 
	C366.264282,249.501450 366.264282,231.109726 366.264282,212.189026 
	C377.245087,212.189026 388.190735,212.151169 399.135040,212.255524 
	C400.087006,212.264603 401.474670,212.964920 401.911926,213.757034 
	C411.759705,231.598068 421.502716,249.496948 431.641144,268.073334 
	C412.715454,268.073334 394.617096,268.073334 376.023132,268.073334 
z"/>
<path fill="#C8C8C9" opacity="1.000000" stroke="none" 
	d="
M412.587830,392.553223 
	C409.812744,396.273651 406.512360,397.127441 402.738800,395.279785 
	C399.509979,393.698853 397.861389,390.570374 399.161377,387.438721 
	C400.148041,385.061951 402.657166,382.415863 405.034851,381.697876 
	C410.685577,379.991608 414.555359,385.557037 412.587830,392.553223 
z"/>
<path fill="#C8C8C9" opacity="1.000000" stroke="none" 
	d="
M119.107941,388.187592 
	C119.128387,392.838837 117.129257,395.542603 112.880318,396.177795 
	C109.164536,396.733276 105.777504,395.262329 105.180412,391.630829 
	C104.747414,388.997284 105.619080,385.232941 107.380142,383.345337 
	C111.068771,379.391602 116.801254,381.827942 119.107941,388.187592 
z"/>
</svg>