<?xml version="1.0" encoding="UTF-8"?>
<svg id="primary_logo" data-name="primary logo" xmlns="http://www.w3.org/2000/svg" width="29.79mm" height="39.73mm" viewBox="0 0 84.45 112.63">
  <defs>
    <style>
      .cls-1 {
        fill: #f87629;
        stroke: #fff;
        stroke-miterlimit: 10;
        stroke-width: 3px;
      }

      .cls-2 {
        fill: #fff;
        stroke-width: 0px;
      }
    </style>
  </defs>
  <path class="cls-2" d="M41.15,55.6L8.41,94.45c-1.29,1.37-2.08,3.78-1.36,5.5.73,1.78,2.48,2.93,4.4,2.91,1.23-.03,2.39-.6,3.16-1.56l40.19-42.71c1.6-1.69,1.62-4.33.04-6.04l-13.69,3.05Z"/>
  <path class="cls-1" d="M41.15,55.6l31.19-38.27c1.49-1.99,2.2-3.03,1.49-4.72-.76-1.83-2.5-3.06-4.48-3.16h0c-1.11-.06-2.2.34-3.01,1.11L27.72,52.33c-1.72,1.84-1.71,4.7.02,6.53l47.79,51.07c.81.85,1.97,1.29,3.14,1.19,1.79-.03,3.38-1.15,4.03-2.82.72-1.73-.08-3.44-1.4-5.23l-40.12-47.46"/>
  <path class="cls-2" d="M54.84,52.55L8.17,2.13S6.46.05,4.65,0C2.77-.04,1.05,1.06.31,2.79c-.7,1.69-.2,2.88,1.35,5.1l40.09,48.42"/>
</svg>